<svg width="30" height="188" viewBox="0 0 30 188" fill="none" xmlns="http://www.w3.org/2000/svg">
<path d="M14.2929 124.113C14.6834 124.503 15.3166 124.503 15.7071 124.113L22.0711 117.749C22.4616 117.358 22.4616 116.725 22.0711 116.335C21.6805 115.944 21.0474 115.944 20.6569 116.335L15 121.992L9.34315 116.335C8.95262 115.944 8.31946 115.944 7.92893 116.335C7.53841 116.725 7.53841 117.358 7.92893 117.749L14.2929 124.113ZM14 0V0.00123403L16 0.00123403V0L14 0ZM14 123.405V123.406H16V123.405H14ZM13.5858 124.82C14.3668 125.601 15.6332 125.601 16.4142 124.82L29.1421 112.092C29.9232 111.311 29.9232 110.045 29.1421 109.264C28.3611 108.483 27.0948 108.483 26.3137 109.264L15 120.577L3.68629 109.264C2.90524 108.483 1.63891 108.483 0.857864 109.264C0.0768156 110.045 0.0768156 111.311 0.857864 112.092L13.5858 124.82ZM13 0V0.00123403L17 0.00123403V0L13 0ZM13 123.405V123.406H17V123.405H13Z" fill="#FEFEFE"/>
<path d="M14.2929 186.113C14.6834 186.503 15.3166 186.503 15.7071 186.113L22.0711 179.749C22.4616 179.358 22.4616 178.725 22.0711 178.335C21.6805 177.944 21.0474 177.944 20.6569 178.335L15 183.992L9.34315 178.335C8.95262 177.944 8.31946 177.944 7.92893 178.335C7.53841 178.725 7.53841 179.358 7.92893 179.749L14.2929 186.113ZM14 62V62.0012H16V62H14ZM14 185.405V185.406H16V185.405H14ZM13.5858 186.82C14.3668 187.601 15.6332 187.601 16.4142 186.82L29.1421 174.092C29.9232 173.311 29.9232 172.045 29.1421 171.264C28.3611 170.483 27.0948 170.483 26.3137 171.264L15 182.577L3.68629 171.264C2.90524 170.483 1.63891 170.483 0.857864 171.264C0.0768156 172.045 0.0768156 173.311 0.857864 174.092L13.5858 186.82ZM13 62V62.0012H17V62H13ZM13 185.405V185.406H17V185.405H13Z" fill="#FEFEFE"/>
<path d="M14.2929 157.113C14.6834 157.503 15.3166 157.503 15.7071 157.113L22.0711 150.749C22.4616 150.358 22.4616 149.725 22.0711 149.335C21.6805 148.944 21.0474 148.944 20.6569 149.335L15 154.992L9.34315 149.335C8.95262 148.944 8.31946 148.944 7.92893 149.335C7.53841 149.725 7.53841 150.358 7.92893 150.749L14.2929 157.113ZM14 33V33.0012H16V33H14ZM14 156.405V156.406H16V156.405H14ZM13.5858 157.82C14.3668 158.601 15.6332 158.601 16.4142 157.82L29.1421 145.092C29.9232 144.311 29.9232 143.045 29.1421 142.264C28.3611 141.483 27.0948 141.483 26.3137 142.264L15 153.577L3.68629 142.264C2.90524 141.483 1.63891 141.483 0.857864 142.264C0.0768156 143.045 0.0768156 144.311 0.857864 145.092L13.5858 157.82ZM13 33V33.0012H17V33H13ZM13 156.405V156.406H17V156.405H13Z" fill="#FEFEFE"/>
</svg>
