<svg width="70" height="70" viewBox="0 0 70 70" fill="none" xmlns="http://www.w3.org/2000/svg">
<circle cx="34.8178" cy="34.9555" r="34.8178" fill="#FEFEFE"/>
<path fill-rule="evenodd" clip-rule="evenodd" d="M7.28367 25.9163C7.31725 25.9163 7.35021 25.9254 7.37904 25.9426L29.4493 39.1243C32.6076 41.0105 36.5464 41.0105 39.7046 39.1243L61.7078 25.9827C61.7806 25.9392 61.8637 25.9163 61.9485 25.9163C62.2077 25.9163 62.4178 26.1264 62.4178 26.3856V43.7571C62.4178 49.28 57.9407 53.7571 52.4178 53.7571H17.0976C11.5748 53.7571 7.09766 49.28 7.09766 43.7571V26.1023C7.09766 25.9995 7.18094 25.9163 7.28367 25.9163Z" fill="#03030C"/>
<path d="M35.964 35.8426C35.3323 36.2198 34.5446 36.2198 33.9129 35.8426L13.9198 23.9015C12.1765 22.8603 12.9148 20.1844 14.9453 20.1844L54.9316 20.1844C56.9622 20.1844 57.7004 22.8603 55.9571 23.9015L35.964 35.8426Z" fill="#03030C"/>
</svg>
